<?xml version="1.0" encoding="UTF-8" standalone="no"?>
<!DOCTYPE svg PUBLIC "-//W3C//DTD SVG 1.1//EN"
 "http://www.w3.org/Graphics/SVG/1.1/DTD/svg11.dtd">
<!-- Generated by graphviz version 14.1.2 (0)
 -->
<!-- Title: BTBillyBass Pages: 1 -->
<svg width="1505pt" height="664pt"
 viewBox="0.00 0.00 1505.00 664.00" xmlns="http://www.w3.org/2000/svg" xmlns:xlink="http://www.w3.org/1999/xlink">
<g id="graph0" class="graph" transform="scale(1 1) rotate(0) translate(4 660.25)">
<title>BTBillyBass</title>
<polygon fill="white" stroke="none" points="-4,4 -4,-660.25 1500.56,-660.25 1500.56,4 -4,4"/>
<text xml:space="preserve" text-anchor="middle" x="748.28" y="-638.95" font-family="Helvetica,sans-Serif" font-size="14.00">BTBillyBass — MH&#45;M38 + Arduino Nano + MX1508 (Big Mouth Billy Bass)</text>
<g id="clust1" class="cluster">
<title>cluster_pwr</title>
<path fill="white" stroke="gray" d="M1134.31,-506C1134.31,-506 1372.31,-506 1372.31,-506 1378.31,-506 1384.31,-512 1384.31,-518 1384.31,-518 1384.31,-611 1384.31,-611 1384.31,-617 1378.31,-623 1372.31,-623 1372.31,-623 1134.31,-623 1134.31,-623 1128.31,-623 1122.31,-617 1122.31,-611 1122.31,-611 1122.31,-518 1122.31,-518 1122.31,-512 1128.31,-506 1134.31,-506"/>
<text xml:space="preserve" text-anchor="middle" x="1253.31" y="-605.7" font-family="Helvetica,sans-Serif" font-size="14.00">Power (common GND for all blocks)</text>
</g>
<g id="clust2" class="cluster">
<title>cluster_mh</title>
<path fill="white" stroke="#0066aa" d="M20,-452C20,-452 558,-452 558,-452 564,-452 570,-458 570,-464 570,-464 570,-571 570,-571 570,-577 564,-583 558,-583 558,-583 20,-583 20,-583 14,-583 8,-577 8,-571 8,-571 8,-464 8,-464 8,-458 14,-452 20,-452"/>
<text xml:space="preserve" text-anchor="middle" x="289" y="-565.7" font-family="Helvetica,sans-Serif" font-size="14.00">MH&#45;M38 (Bluetooth receiver + TC8871 stereo amp)</text>
</g>
<g id="clust3" class="cluster">
<title>cluster_analog</title>
<path fill="white" stroke="#228822" d="M273.81,-8C273.81,-8 780.31,-8 780.31,-8 786.31,-8 792.31,-14 792.31,-20 792.31,-20 792.31,-191 792.31,-191 792.31,-197 786.31,-203 780.31,-203 780.31,-203 273.81,-203 273.81,-203 267.81,-203 261.81,-197 261.81,-191 261.81,-191 261.81,-20 261.81,-20 261.81,-14 267.81,-8 273.81,-8"/>
<text xml:space="preserve" text-anchor="middle" x="527.06" y="-185.7" font-family="Helvetica,sans-Serif" font-size="14.00">Analog front&#45;end per channel (build ×2: L→A0, R→A1)</text>
<text xml:space="preserve" text-anchor="middle" x="527.06" y="-168.45" font-family="Helvetica,sans-Serif" font-size="14.00">C_in 1µF | R_series 10k | R_bias 100k to +5V, 100k to GND at Arduino pin</text>
</g>
<g id="clust4" class="cluster">
<title>cluster_arduino</title>
<path fill="white" stroke="#00979d" d="M843.56,-160C843.56,-160 1050.81,-160 1050.81,-160 1056.81,-160 1062.81,-166 1062.81,-172 1062.81,-172 1062.81,-361 1062.81,-361 1062.81,-367 1056.81,-373 1050.81,-373 1050.81,-373 843.56,-373 843.56,-373 837.56,-373 831.56,-367 831.56,-361 831.56,-361 831.56,-172 831.56,-172 831.56,-166 837.56,-160 843.56,-160"/>
<text xml:space="preserve" text-anchor="middle" x="947.19" y="-355.7" font-family="Helvetica,sans-Serif" font-size="14.00">Arduino Nano (BTBillyBass.ino)</text>
</g>
<g id="clust5" class="cluster">
<title>cluster_mx</title>
<path fill="white" stroke="#884400" d="M1162.06,-136C1162.06,-136 1481.81,-136 1481.81,-136 1487.81,-136 1493.81,-142 1493.81,-148 1493.81,-148 1493.81,-327 1493.81,-327 1493.81,-333 1487.81,-339 1481.81,-339 1481.81,-339 1162.06,-339 1162.06,-339 1156.06,-339 1150.06,-333 1150.06,-327 1150.06,-327 1150.06,-148 1150.06,-148 1150.06,-142 1156.06,-136 1162.06,-136"/>
<text xml:space="preserve" text-anchor="middle" x="1321.94" y="-321.7" font-family="Helvetica,sans-Serif" font-size="14.00">MX1508 dual H&#45;bridge modules (or equivalent)</text>
</g>
<g id="clust6" class="cluster">
<title>cluster_ui</title>
<path fill="white" stroke="black" d="M1199.31,-347C1199.31,-347 1306.31,-347 1306.31,-347 1312.31,-347 1318.31,-353 1318.31,-359 1318.31,-359 1318.31,-486 1318.31,-486 1318.31,-492 1312.31,-498 1306.31,-498 1306.31,-498 1199.31,-498 1199.31,-498 1193.31,-498 1187.31,-492 1187.31,-486 1187.31,-486 1187.31,-359 1187.31,-359 1187.31,-353 1193.31,-347 1199.31,-347"/>
<text xml:space="preserve" text-anchor="middle" x="1252.81" y="-480.7" font-family="Helvetica,sans-Serif" font-size="14.00">User I/O</text>
</g>
<!-- PSU -->
<g id="node1" class="node">
<title>PSU</title>
<polygon fill="none" stroke="black" points="1321.56,-560.12 1184.06,-560.12 1184.06,-513.88 1321.56,-513.88 1321.56,-560.12"/>
<text xml:space="preserve" text-anchor="middle" x="1252.81" y="-546.62" font-family="Helvetica,sans-Serif" font-size="10.00">5 V supply</text>
<text xml:space="preserve" text-anchor="middle" x="1252.81" y="-533.88" font-family="Helvetica,sans-Serif" font-size="10.00">(adequate current for</text>
<text xml:space="preserve" text-anchor="middle" x="1252.81" y="-521.12" font-family="Helvetica,sans-Serif" font-size="10.00">MH&#45;M38 amp + Arduino)</text>
</g>
<!-- MH -->
<g id="node4" class="node">
<title>MH</title>
<path fill="#e8f4ff" stroke="black" d="M170.56,-531.88C170.56,-531.88 30.06,-531.88 30.06,-531.88 24.06,-531.88 18.06,-525.88 18.06,-519.88 18.06,-519.88 18.06,-472.12 18.06,-472.12 18.06,-466.12 24.06,-460.12 30.06,-460.12 30.06,-460.12 170.56,-460.12 170.56,-460.12 176.56,-460.12 182.56,-466.12 182.56,-472.12 182.56,-472.12 182.56,-519.88 182.56,-519.88 182.56,-525.88 176.56,-531.88 170.56,-531.88"/>
<text xml:space="preserve" text-anchor="middle" x="100.31" y="-518.38" font-family="Helvetica,sans-Serif" font-size="10.00">MH&#45;M38 board</text>
<text xml:space="preserve" text-anchor="middle" x="100.31" y="-505.62" font-family="Helvetica,sans-Serif" font-size="10.00">• Pair phone over BT</text>
<text xml:space="preserve" text-anchor="middle" x="100.31" y="-492.88" font-family="Helvetica,sans-Serif" font-size="10.00">• Line/headphone L/R/GND tap</text>
<text xml:space="preserve" text-anchor="middle" x="100.31" y="-480.12" font-family="Helvetica,sans-Serif" font-size="10.00"> &#160;(preferred for Arduino)</text>
<text xml:space="preserve" text-anchor="middle" x="100.31" y="-467.38" font-family="Helvetica,sans-Serif" font-size="10.00">• Speaker OUT L/R</text>
</g>
<!-- PSU&#45;&gt;MH -->
<g id="edge5" class="edge">
<title>PSU&#45;&gt;MH</title>
<path fill="none" stroke="black" d="M1183.86,-520.2C1094.67,-499.09 932.93,-464.05 792.31,-451 557.54,-429.22 495.39,-418.87 261.81,-451 239.49,-454.07 215.91,-459.43 193.89,-465.41"/>
<polygon fill="black" stroke="black" points="193.02,-462.02 184.33,-468.08 194.91,-468.76 193.02,-462.02"/>
<text xml:space="preserve" text-anchor="middle" x="811.94" y="-456.65" font-family="Helvetica,sans-Serif" font-size="9.00">5 V</text>
</g>
<!-- ARD -->
<g id="node9" class="node">
<title>ARD</title>
<path fill="#d9f7f8" stroke="black" d="M992.56,-339.75C992.56,-339.75 900.81,-339.75 900.81,-339.75 894.81,-339.75 888.81,-333.75 888.81,-327.75 888.81,-327.75 888.81,-180.25 888.81,-180.25 888.81,-174.25 894.81,-168.25 900.81,-168.25 900.81,-168.25 992.56,-168.25 992.56,-168.25 998.56,-168.25 1004.56,-174.25 1004.56,-180.25 1004.56,-180.25 1004.56,-327.75 1004.56,-327.75 1004.56,-333.75 998.56,-339.75 992.56,-339.75"/>
<text xml:space="preserve" text-anchor="middle" x="946.69" y="-326.25" font-family="Helvetica,sans-Serif" font-size="10.00">Arduino Nano</text>
<text xml:space="preserve" text-anchor="middle" x="946.69" y="-301.5" font-family="Helvetica,sans-Serif" font-size="10.00">PWM / digital:</text>
<text xml:space="preserve" text-anchor="middle" x="946.69" y="-288.75" font-family="Helvetica,sans-Serif" font-size="10.00"> D2 LED</text>
<text xml:space="preserve" text-anchor="middle" x="946.69" y="-276" font-family="Helvetica,sans-Serif" font-size="10.00"> D3/D5 mouth motor</text>
<text xml:space="preserve" text-anchor="middle" x="946.69" y="-263.25" font-family="Helvetica,sans-Serif" font-size="10.00"> D4 disable switch</text>
<text xml:space="preserve" text-anchor="middle" x="946.69" y="-250.5" font-family="Helvetica,sans-Serif" font-size="10.00"> D6/D9 body motor</text>
<text xml:space="preserve" text-anchor="middle" x="946.69" y="-225.75" font-family="Helvetica,sans-Serif" font-size="10.00">Analog in:</text>
<text xml:space="preserve" text-anchor="middle" x="946.69" y="-213" font-family="Helvetica,sans-Serif" font-size="10.00"> A0 ← Left (biased)</text>
<text xml:space="preserve" text-anchor="middle" x="946.69" y="-200.25" font-family="Helvetica,sans-Serif" font-size="10.00"> A1 ← Right (biased)</text>
<text xml:space="preserve" text-anchor="middle" x="946.69" y="-175.5" font-family="Helvetica,sans-Serif" font-size="10.00">+5V, GND</text>
</g>
<!-- PSU&#45;&gt;ARD -->
<g id="edge6" class="edge">
<title>PSU&#45;&gt;ARD</title>
<path fill="none" stroke="black" d="M1183.88,-534.58C1160.77,-530.11 1137.07,-520.77 1122.31,-502 1115,-492.69 1125.99,-405.44 1119.56,-395.5 1106.51,-375.3 1090.57,-385.71 1070.81,-372 1050.67,-358.02 1030.67,-340.74 1012.84,-323.75"/>
<polygon fill="black" stroke="black" points="1015.51,-321.47 1005.89,-317.03 1010.64,-326.5 1015.51,-321.47"/>
<text xml:space="preserve" text-anchor="middle" x="1095.19" y="-409.45" font-family="Helvetica,sans-Serif" font-size="9.00">5 V</text>
<text xml:space="preserve" text-anchor="middle" x="1095.19" y="-398.2" font-family="Helvetica,sans-Serif" font-size="9.00">(or USB)</text>
</g>
<!-- MX1 -->
<g id="node10" class="node">
<title>MX1</title>
<polygon fill="none" stroke="black" points="1329.06,-305.88 1176.56,-305.88 1176.56,-234.12 1329.06,-234.12 1329.06,-305.88"/>
<text xml:space="preserve" text-anchor="middle" x="1252.81" y="-292.38" font-family="Helvetica,sans-Serif" font-size="10.00">MX1508 #1 — mouth motor</text>
<text xml:space="preserve" text-anchor="middle" x="1252.81" y="-279.62" font-family="Helvetica,sans-Serif" font-size="10.00">IN1 ← D3</text>
<text xml:space="preserve" text-anchor="middle" x="1252.81" y="-266.88" font-family="Helvetica,sans-Serif" font-size="10.00">IN2 ← D5</text>
<text xml:space="preserve" text-anchor="middle" x="1252.81" y="-254.12" font-family="Helvetica,sans-Serif" font-size="10.00">Vmotor, GND</text>
<text xml:space="preserve" text-anchor="middle" x="1252.81" y="-241.38" font-family="Helvetica,sans-Serif" font-size="10.00">OUT → mouth motor</text>
</g>
<!-- PSU&#45;&gt;MX1 -->
<g id="edge7" class="edge">
<title>PSU&#45;&gt;MX1</title>
<path fill="none" stroke="black" d="M1183.68,-533.16C1161.17,-528.45 1137.97,-519.31 1122.31,-502 1035.6,-406.11 1082.02,-344.64 1096.92,-323.75 1112.98,-301.21 1139.15,-288.03 1165.5,-280.36"/>
<polygon fill="black" stroke="black" points="1166.13,-283.81 1174.91,-277.87 1164.34,-277.04 1166.13,-283.81"/>
<text xml:space="preserve" text-anchor="middle" x="1095.19" y="-337.7" font-family="Helvetica,sans-Serif" font-size="9.00">Vmotor</text>
<text xml:space="preserve" text-anchor="middle" x="1095.19" y="-326.45" font-family="Helvetica,sans-Serif" font-size="9.00">(often 5 V)</text>
</g>
<!-- MX2 -->
<g id="node11" class="node">
<title>MX2</title>
<polygon fill="none" stroke="black" points="1325.31,-215.88 1180.31,-215.88 1180.31,-144.12 1325.31,-144.12 1325.31,-215.88"/>
<text xml:space="preserve" text-anchor="middle" x="1252.81" y="-202.38" font-family="Helvetica,sans-Serif" font-size="10.00">MX1508 #2 — body motor</text>
<text xml:space="preserve" text-anchor="middle" x="1252.81" y="-189.62" font-family="Helvetica,sans-Serif" font-size="10.00">IN1 ← D6</text>
<text xml:space="preserve" text-anchor="middle" x="1252.81" y="-176.88" font-family="Helvetica,sans-Serif" font-size="10.00">IN2 ← D9</text>
<text xml:space="preserve" text-anchor="middle" x="1252.81" y="-164.12" font-family="Helvetica,sans-Serif" font-size="10.00">Vmotor, GND</text>
<text xml:space="preserve" text-anchor="middle" x="1252.81" y="-151.38" font-family="Helvetica,sans-Serif" font-size="10.00">OUT → body motor</text>
</g>
<!-- PSU&#45;&gt;MX2 -->
<g id="edge8" class="edge">
<title>PSU&#45;&gt;MX2</title>
<path fill="none" stroke="black" d="M1183.9,-534.06C1160.99,-529.49 1137.48,-520.2 1122.31,-502 1057.08,-423.7 1087.17,-373.75 1104.79,-273.38 1108.74,-250.85 1106.02,-241.04 1122.31,-225 1135.32,-212.19 1152.15,-203.02 1169.36,-196.45"/>
<polygon fill="black" stroke="black" points="1170.39,-199.8 1178.67,-193.2 1168.08,-193.2 1170.39,-199.8"/>
<text xml:space="preserve" text-anchor="middle" x="1095.19" y="-276.07" font-family="Helvetica,sans-Serif" font-size="9.00">Vmotor</text>
</g>
<!-- GND -->
<g id="node2" class="node">
<title>GND</title>
<ellipse fill="black" stroke="black" cx="1252.81" cy="-584" rx="5.4" ry="5.4"/>
</g>
<!-- GND_lbl -->
<g id="node3" class="node">
<title>GND_lbl</title>
<text xml:space="preserve" text-anchor="middle" x="1252.81" y="-94.25" font-family="Helvetica,sans-Serif" font-size="10.00">GND</text>
<text xml:space="preserve" text-anchor="middle" x="1252.81" y="-81.5" font-family="Helvetica,sans-Serif" font-size="10.00">(bus)</text>
</g>
<!-- MH&#45;&gt;GND_lbl -->
<g id="edge17" class="edge">
<title>MH&#45;&gt;GND_lbl</title>
<path fill="none" stroke="black" stroke-dasharray="1,5" d="M175.05,-459.7C183.61,-455.67 192.26,-451.7 200.56,-448 460.02,-332.57 566.38,-379.04 792.31,-207 815.07,-189.67 806.89,-170.47 831.56,-156 921.17,-103.45 960.16,-137.96 1062.81,-122 1115.66,-113.78 1176.72,-103.65 1214.8,-97.26"/>
<polygon fill="black" stroke="black" points="1215.07,-100.76 1224.36,-95.65 1213.91,-93.86 1215.07,-100.76"/>
<text xml:space="preserve" text-anchor="middle" x="811.94" y="-202" font-family="Helvetica,sans-Serif" font-size="9.00"> GND</text>
</g>
<!-- SPK_L -->
<g id="node5" class="node">
<title>SPK_L</title>
<polygon fill="none" stroke="black" points="558.19,-496 494.94,-496 494.94,-460 558.19,-460 558.19,-496"/>
<text xml:space="preserve" text-anchor="middle" x="526.56" y="-481.25" font-family="Helvetica,sans-Serif" font-size="10.00">Speaker L</text>
<text xml:space="preserve" text-anchor="middle" x="526.56" y="-468.5" font-family="Helvetica,sans-Serif" font-size="10.00">(4–8 Ω)</text>
</g>
<!-- MH&#45;&gt;SPK_L -->
<g id="edge1" class="edge">
<title>MH&#45;&gt;SPK_L</title>
<path fill="none" stroke="black" d="M182.86,-492.54C272.51,-488.74 413.08,-482.77 483.05,-479.8"/>
<polygon fill="black" stroke="black" points="483.1,-483.3 492.94,-479.38 482.8,-476.31 483.1,-483.3"/>
<text xml:space="preserve" text-anchor="middle" x="227.19" y="-494.35" font-family="Helvetica,sans-Serif" font-size="9.00">OUT L+/L−</text>
</g>
<!-- SPK_R -->
<g id="node6" class="node">
<title>SPK_R</title>
<polygon fill="none" stroke="black" points="558.94,-550 494.19,-550 494.19,-514 558.94,-514 558.94,-550"/>
<text xml:space="preserve" text-anchor="middle" x="526.56" y="-535.25" font-family="Helvetica,sans-Serif" font-size="10.00">Speaker R</text>
<text xml:space="preserve" text-anchor="middle" x="526.56" y="-522.5" font-family="Helvetica,sans-Serif" font-size="10.00">(4–8 Ω)</text>
</g>
<!-- MH&#45;&gt;SPK_R -->
<g id="edge2" class="edge">
<title>MH&#45;&gt;SPK_R</title>
<path fill="none" stroke="black" d="M182.82,-503.44C188.83,-503.97 194.79,-504.5 200.56,-505 301.51,-513.77 420.15,-523.47 482.41,-528.52"/>
<polygon fill="black" stroke="black" points="481.97,-531.99 492.22,-529.31 482.53,-525.02 481.97,-531.99"/>
<text xml:space="preserve" text-anchor="middle" x="227.19" y="-512.27" font-family="Helvetica,sans-Serif" font-size="9.00">OUT R+/R−</text>
</g>
<!-- AF_L -->
<g id="node7" class="node">
<title>AF_L</title>
<polygon fill="none" stroke="black" points="591.56,-152.5 461.56,-152.5 461.56,-148.5 457.56,-148.5 457.56,-144.5 461.56,-144.5 461.56,-101.5 457.56,-101.5 457.56,-97.5 461.56,-97.5 461.56,-93.5 591.56,-93.5 591.56,-152.5"/>
<polyline fill="none" stroke="black" points="461.56,-148.5 465.56,-148.5 465.56,-144.5 461.56,-144.5"/>
<polyline fill="none" stroke="black" points="461.56,-101.5 465.56,-101.5 465.56,-97.5 461.56,-97.5"/>
<text xml:space="preserve" text-anchor="middle" x="526.56" y="-139" font-family="Helvetica,sans-Serif" font-size="10.00">L channel:</text>
<text xml:space="preserve" text-anchor="middle" x="526.56" y="-126.25" font-family="Helvetica,sans-Serif" font-size="10.00">C_in — R_series —► A0</text>
<text xml:space="preserve" text-anchor="middle" x="526.56" y="-113.5" font-family="Helvetica,sans-Serif" font-size="10.00"> &#160;&#160;&#160;&#160;&#160;&#160;&#160;╲__ 100k — +5V</text>
<text xml:space="preserve" text-anchor="middle" x="526.56" y="-100.75" font-family="Helvetica,sans-Serif" font-size="10.00"> &#160;&#160;&#160;&#160;&#160;&#160;&#160;╲__ 100k — GND</text>
</g>
<!-- MH&#45;&gt;AF_L -->
<g id="edge9" class="edge">
<title>MH&#45;&gt;AF_L</title>
<path fill="none" stroke="black" d="M101.56,-459.85C104.1,-394.39 119.4,-256.36 200.56,-184.5 268.72,-124.16 377.08,-114.96 449.73,-116.71"/>
<polygon fill="black" stroke="black" points="449.45,-120.2 459.55,-117.03 449.67,-113.21 449.45,-120.2"/>
<text xml:space="preserve" text-anchor="middle" x="227.19" y="-198.45" font-family="Helvetica,sans-Serif" font-size="9.00">L (line tap)</text>
<text xml:space="preserve" text-anchor="middle" x="227.19" y="-187.2" font-family="Helvetica,sans-Serif" font-size="9.00">not speaker</text>
</g>
<!-- AF_R -->
<g id="node8" class="node">
<title>AF_R</title>
<polygon fill="none" stroke="black" points="591.56,-75.5 461.56,-75.5 461.56,-71.5 457.56,-71.5 457.56,-67.5 461.56,-67.5 461.56,-24.5 457.56,-24.5 457.56,-20.5 461.56,-20.5 461.56,-16.5 591.56,-16.5 591.56,-75.5"/>
<polyline fill="none" stroke="black" points="461.56,-71.5 465.56,-71.5 465.56,-67.5 461.56,-67.5"/>
<polyline fill="none" stroke="black" points="461.56,-24.5 465.56,-24.5 465.56,-20.5 461.56,-20.5"/>
<text xml:space="preserve" text-anchor="middle" x="526.56" y="-62" font-family="Helvetica,sans-Serif" font-size="10.00">R channel:</text>
<text xml:space="preserve" text-anchor="middle" x="526.56" y="-49.25" font-family="Helvetica,sans-Serif" font-size="10.00">C_in — R_series —► A1</text>
<text xml:space="preserve" text-anchor="middle" x="526.56" y="-36.5" font-family="Helvetica,sans-Serif" font-size="10.00"> &#160;&#160;&#160;&#160;&#160;&#160;&#160;╲__ 100k — +5V</text>
<text xml:space="preserve" text-anchor="middle" x="526.56" y="-23.75" font-family="Helvetica,sans-Serif" font-size="10.00"> &#160;&#160;&#160;&#160;&#160;&#160;&#160;╲__ 100k — GND</text>
</g>
<!-- MH&#45;&gt;AF_R -->
<g id="edge10" class="edge">
<title>MH&#45;&gt;AF_R</title>
<path fill="none" stroke="black" d="M102.52,-459.88C106.58,-388.96 124.21,-229.32 200.56,-124.5 256.26,-48.03 372.77,-37.11 450.09,-39.27"/>
<polygon fill="black" stroke="black" points="449.56,-42.76 459.68,-39.63 449.82,-35.76 449.56,-42.76"/>
<text xml:space="preserve" text-anchor="middle" x="227.19" y="-138.45" font-family="Helvetica,sans-Serif" font-size="9.00">R (line tap)</text>
<text xml:space="preserve" text-anchor="middle" x="227.19" y="-127.2" font-family="Helvetica,sans-Serif" font-size="9.00">not speaker</text>
</g>
<!-- AF_L&#45;&gt;GND_lbl -->
<g id="edge21" class="edge">
<title>AF_L&#45;&gt;GND_lbl</title>
<path fill="none" stroke="black" stroke-dasharray="1,5" d="M591.83,-120.16C739.29,-113.65 1098.14,-97.79 1214.63,-92.64"/>
<polygon fill="black" stroke="black" points="1214.72,-96.14 1224.55,-92.2 1214.41,-89.15 1214.72,-96.14"/>
<text xml:space="preserve" text-anchor="middle" x="946.69" y="-112.09" font-family="Helvetica,sans-Serif" font-size="9.00"> GND</text>
</g>
<!-- AF_L&#45;&gt;ARD -->
<g id="edge11" class="edge">
<title>AF_L&#45;&gt;ARD</title>
<path fill="none" stroke="black" stroke-dasharray="5,2" d="M591.89,-123.95C653.42,-126.83 747.79,-136.45 823.56,-167 842.81,-174.76 861.92,-186.13 879.1,-198.1"/>
<polygon fill="black" stroke="black" points="877.04,-200.93 887.21,-203.91 881.12,-195.24 877.04,-200.93"/>
</g>
<!-- AF_R&#45;&gt;GND_lbl -->
<g id="edge22" class="edge">
<title>AF_R&#45;&gt;GND_lbl</title>
<path fill="none" stroke="black" stroke-dasharray="1,5" d="M591.83,-49.99C739.29,-59.16 1098.14,-81.45 1214.63,-88.69"/>
<polygon fill="black" stroke="black" points="1214.36,-92.18 1224.56,-89.31 1214.79,-85.19 1214.36,-92.18"/>
<text xml:space="preserve" text-anchor="middle" x="946.69" y="-81.7" font-family="Helvetica,sans-Serif" font-size="9.00"> GND</text>
</g>
<!-- AF_R&#45;&gt;ARD -->
<g id="edge12" class="edge">
<title>AF_R&#45;&gt;ARD</title>
<path fill="none" stroke="black" stroke-dasharray="5,2" d="M592.02,-43.62C648.08,-44.22 729.9,-51.71 792.31,-85 826.52,-103.25 856.98,-132.23 881.56,-161.08"/>
<polygon fill="black" stroke="black" points="878.61,-163.01 887.7,-168.45 883.99,-158.52 878.61,-163.01"/>
</g>
<!-- ARD&#45;&gt;GND_lbl -->
<g id="edge18" class="edge">
<title>ARD&#45;&gt;GND_lbl</title>
<path fill="none" stroke="black" stroke-dasharray="1,5" d="M1004.77,-206.51C1037.46,-181.33 1080.25,-151.62 1122.31,-132 1152.47,-117.93 1188.73,-106.91 1215.2,-99.86"/>
<polygon fill="black" stroke="black" points="1215.99,-103.27 1224.79,-97.37 1214.23,-96.49 1215.99,-103.27"/>
<text xml:space="preserve" text-anchor="middle" x="1095.19" y="-162.76" font-family="Helvetica,sans-Serif" font-size="9.00"> GND</text>
</g>
<!-- ARD&#45;&gt;MX1 -->
<g id="edge13" class="edge">
<title>ARD&#45;&gt;MX1</title>
<path fill="none" stroke="black" d="M1005.02,-254.24C1038.45,-254.63 1081.42,-255.57 1119.56,-257.75 1134.24,-258.59 1149.81,-259.77 1164.91,-261.07"/>
<polygon fill="black" stroke="black" points="1164.57,-264.55 1174.84,-261.95 1165.19,-257.58 1164.57,-264.55"/>
<text xml:space="preserve" text-anchor="middle" x="1095.19" y="-260.45" font-family="Helvetica,sans-Serif" font-size="9.00">D3,D5</text>
</g>
<!-- ARD&#45;&gt;MX2 -->
<g id="edge14" class="edge">
<title>ARD&#45;&gt;MX2</title>
<path fill="none" stroke="black" d="M1004.99,-216.94C1025.03,-205.83 1048.18,-194.96 1070.81,-188.75 1102.16,-180.15 1137.68,-177.07 1168.91,-176.45"/>
<polygon fill="black" stroke="black" points="1168.72,-179.95 1178.69,-176.34 1168.65,-172.95 1168.72,-179.95"/>
<text xml:space="preserve" text-anchor="middle" x="1095.19" y="-191.45" font-family="Helvetica,sans-Serif" font-size="9.00">D6,D9</text>
</g>
<!-- LED -->
<g id="node14" class="node">
<title>LED</title>
<polygon fill="none" stroke="black" points="1302.44,-465.12 1203.19,-465.12 1203.19,-418.88 1302.44,-418.88 1302.44,-465.12"/>
<text xml:space="preserve" text-anchor="middle" x="1252.81" y="-451.62" font-family="Helvetica,sans-Serif" font-size="10.00">LED</text>
<text xml:space="preserve" text-anchor="middle" x="1252.81" y="-438.88" font-family="Helvetica,sans-Serif" font-size="10.00">220–330 Ω</text>
<text xml:space="preserve" text-anchor="middle" x="1252.81" y="-426.12" font-family="Helvetica,sans-Serif" font-size="10.00">D2 → LED → GND</text>
</g>
<!-- ARD&#45;&gt;LED -->
<g id="edge15" class="edge">
<title>ARD&#45;&gt;LED</title>
<path fill="none" stroke="black" d="M1004.85,-299.53C1025.26,-315.15 1048.69,-332.37 1070.81,-347 1091.66,-360.78 1106.21,-353.88 1119.56,-375 1123.73,-381.59 1117.27,-404.05 1122.31,-410 1139.2,-429.91 1166.33,-438.49 1191.4,-441.86"/>
<polygon fill="black" stroke="black" points="1190.91,-445.33 1201.23,-442.9 1191.65,-438.36 1190.91,-445.33"/>
</g>
<!-- SW -->
<g id="node15" class="node">
<title>SW</title>
<polygon fill="none" stroke="black" points="1310.31,-401.12 1195.31,-401.12 1195.31,-354.88 1310.31,-354.88 1310.31,-401.12"/>
<text xml:space="preserve" text-anchor="middle" x="1252.81" y="-387.62" font-family="Helvetica,sans-Serif" font-size="10.00">SPST motor disable</text>
<text xml:space="preserve" text-anchor="middle" x="1252.81" y="-374.88" font-family="Helvetica,sans-Serif" font-size="10.00">D4 — switch — GND</text>
<text xml:space="preserve" text-anchor="middle" x="1252.81" y="-362.12" font-family="Helvetica,sans-Serif" font-size="10.00">(HIGH = motors on)</text>
</g>
<!-- ARD&#45;&gt;SW -->
<g id="edge16" class="edge">
<title>ARD&#45;&gt;SW</title>
<path fill="none" stroke="black" d="M1005,-269.1C1049.11,-281.94 1104.93,-301.21 1119.56,-320 1125.89,-328.12 1115.58,-335.21 1122.31,-343 1137.69,-360.79 1161.09,-369.99 1183.78,-374.61"/>
<polygon fill="black" stroke="black" points="1182.89,-378.01 1193.34,-376.27 1184.08,-371.11 1182.89,-378.01"/>
</g>
<!-- MX1&#45;&gt;GND_lbl -->
<g id="edge19" class="edge">
<title>MX1&#45;&gt;GND_lbl</title>
<path fill="none" stroke="black" stroke-dasharray="1,5" d="M1176.4,-261.9C1149.31,-254.57 1122.4,-240.91 1109.67,-215.62 1092.76,-182.05 1097.54,-160.27 1122.31,-132 1145.39,-105.67 1185.17,-96.07 1214.76,-92.66"/>
<polygon fill="black" stroke="black" points="1214.81,-96.17 1224.43,-91.75 1214.15,-89.2 1214.81,-96.17"/>
<text xml:space="preserve" text-anchor="middle" x="1095.19" y="-207.07" font-family="Helvetica,sans-Serif" font-size="9.00"> GND</text>
</g>
<!-- M_MOUTH -->
<g id="node12" class="node">
<title>M_MOUTH</title>
<path fill="none" stroke="black" d="M1465.31,-288.84C1465.31,-291.15 1453.21,-293.03 1438.31,-293.03 1423.41,-293.03 1411.31,-291.15 1411.31,-288.84 1411.31,-288.84 1411.31,-251.16 1411.31,-251.16 1411.31,-248.85 1423.41,-246.97 1438.31,-246.97 1453.21,-246.97 1465.31,-248.85 1465.31,-251.16 1465.31,-251.16 1465.31,-288.84 1465.31,-288.84"/>
<path fill="none" stroke="black" d="M1465.31,-288.84C1465.31,-286.53 1453.21,-284.66 1438.31,-284.66 1423.41,-284.66 1411.31,-286.53 1411.31,-288.84"/>
<text xml:space="preserve" text-anchor="middle" x="1438.31" y="-273.25" font-family="Helvetica,sans-Serif" font-size="10.00">Mouth</text>
<text xml:space="preserve" text-anchor="middle" x="1438.31" y="-260.5" font-family="Helvetica,sans-Serif" font-size="10.00">motor</text>
</g>
<!-- MX1&#45;&gt;M_MOUTH -->
<g id="edge3" class="edge">
<title>MX1&#45;&gt;M_MOUTH</title>
<path fill="none" stroke="black" d="M1329.51,-270C1353.77,-270 1379.58,-270 1399.86,-270"/>
<polygon fill="black" stroke="black" points="1399.6,-273.5 1409.6,-270 1399.6,-266.5 1399.6,-273.5"/>
</g>
<!-- MX2&#45;&gt;GND_lbl -->
<g id="edge20" class="edge">
<title>MX2&#45;&gt;GND_lbl</title>
<path fill="none" stroke="black" stroke-dasharray="1,5" d="M1252.81,-143.68C1252.81,-135.83 1252.81,-127.62 1252.81,-120.08"/>
<polygon fill="black" stroke="black" points="1256.31,-120.1 1252.81,-110.1 1249.31,-120.1 1256.31,-120.1"/>
<text xml:space="preserve" text-anchor="middle" x="1244.19" y="-123.64" font-family="Helvetica,sans-Serif" font-size="9.00"> GND</text>
</g>
<!-- M_BODY -->
<g id="node13" class="node">
<title>M_BODY</title>
<path fill="none" stroke="black" d="M1465.31,-198.84C1465.31,-201.15 1453.21,-203.03 1438.31,-203.03 1423.41,-203.03 1411.31,-201.15 1411.31,-198.84 1411.31,-198.84 1411.31,-161.16 1411.31,-161.16 1411.31,-158.85 1423.41,-156.97 1438.31,-156.97 1453.21,-156.97 1465.31,-158.85 1465.31,-161.16 1465.31,-161.16 1465.31,-198.84 1465.31,-198.84"/>
<path fill="none" stroke="black" d="M1465.31,-198.84C1465.31,-196.53 1453.21,-194.66 1438.31,-194.66 1423.41,-194.66 1411.31,-196.53 1411.31,-198.84"/>
<text xml:space="preserve" text-anchor="middle" x="1438.31" y="-183.25" font-family="Helvetica,sans-Serif" font-size="10.00">Body</text>
<text xml:space="preserve" text-anchor="middle" x="1438.31" y="-170.5" font-family="Helvetica,sans-Serif" font-size="10.00">motor</text>
</g>
<!-- MX2&#45;&gt;M_BODY -->
<g id="edge4" class="edge">
<title>MX2&#45;&gt;M_BODY</title>
<path fill="none" stroke="black" d="M1325.81,-180C1350.94,-180 1378.14,-180 1399.39,-180"/>
<polygon fill="black" stroke="black" points="1399.33,-183.5 1409.33,-180 1399.33,-176.5 1399.33,-183.5"/>
</g>
<!-- LED&#45;&gt;GND_lbl -->
<g id="edge24" class="edge">
<title>LED&#45;&gt;GND_lbl</title>
<path fill="none" stroke="black" stroke-dasharray="1,5" d="M1202.94,-444.43C1165.83,-443.21 1117.47,-434.55 1092.56,-401 1058.13,-354.61 1058.33,-187.54 1092.56,-141 1120.5,-103.02 1177.11,-93.08 1215.01,-90.9"/>
<polygon fill="black" stroke="black" points="1214.76,-94.41 1224.61,-90.51 1214.47,-87.42 1214.76,-94.41"/>
</g>
<!-- SW&#45;&gt;GND_lbl -->
<g id="edge23" class="edge">
<title>SW&#45;&gt;GND_lbl</title>
<path fill="none" stroke="black" stroke-dasharray="1,5" d="M1195.21,-378.8C1159.39,-375.88 1115.86,-365.39 1092.56,-334 1067,-299.56 1067.15,-175.55 1092.56,-141 1120.5,-103.02 1177.11,-93.08 1215.01,-90.9"/>
<polygon fill="black" stroke="black" points="1214.76,-94.41 1224.61,-90.51 1214.47,-87.42 1214.76,-94.41"/>
</g>
</g>
</svg>
